<?xml version="1.0" standalone="no"?><!DOCTYPE svg PUBLIC "-//W3C//DTD SVG 1.1//EN" "http://www.w3.org/Graphics/SVG/1.1/DTD/svg11.dtd"><svg class="icon" width="200px" height="190.16px" viewBox="0 0 1077 1024" version="1.1" xmlns="http://www.w3.org/2000/svg"><path fill="#bfbfbf" d="M154.79032 588.798562A379.593492 379.593492 0 0 1 371.377698 242.901732a178.604215 178.604215 0 1 0-11.906948-63.821239v13.097642a434.60359 434.60359 0 0 0-255.999375 396.739497v9.406488H154.79032v-9.406488zM538.670313 50.723597A128.237826 128.237826 0 1 1 410.432486 178.604215 128.475965 128.475965 0 0 1 538.670313 50.723597z m181.461882 877.065765a385.189757 385.189757 0 0 1-181.461882 45.48454A381.022325 381.022325 0 0 1 321.487587 904.928023a178.604215 178.604215 0 1 0-142.883372 70.6082 176.699103 176.699103 0 0 0 104.900209-34.17294A430.674297 430.674297 0 0 0 538.670313 1023.9975a435.913354 435.913354 0 0 0 205.513916-51.438014l8.215794-4.405571-23.813895-44.770123zM178.604215 924.812625a128.356896 128.356896 0 1 1 128.714104-128.356895A128.475965 128.475965 0 0 1 178.604215 924.812625z m0 0"  /><path fill="#bfbfbf" d="M538.670313 414.12364a178.604215 178.604215 0 1 0 178.604215 178.604215 179.318632 179.318632 0 0 0-178.604215-178.604215z m0 307.318319A128.237826 128.237826 0 1 1 666.789069 593.204133 128.475965 128.475965 0 0 1 538.670313 721.561029z m432.698478-88.349551a424.006406 424.006406 0 0 0 2.500459-44.293846 432.460339 432.460339 0 0 0-209.086001-371.853975l-7.977655-4.881849-26.433424 43.34129 7.977655 4.881848a381.974881 381.974881 0 0 1 184.795828 328.512686c0 9.406489 0 19.170186-1.428834 30.243647a176.341895 176.341895 0 0 0-23.813895-1.547903 179.437701 179.437701 0 1 0 72.989589 15.717171z m-72.989589 291.720217a128.356896 128.356896 0 1 1 128.237826-128.356895 128.475965 128.475965 0 0 1-128.237826 128.356895z m0 0"  /></svg>